<mxfile host="app.diagrams.net" modified="2024-05-01T07:48:08.058Z" agent="Mozilla/5.0 (Windows NT 10.0; Win64; x64) AppleWebKit/537.36 (KHTML, like Gecko) Chrome/124.0.0.0 Safari/537.36" etag="IhRtF7JSrPSIjSuWPeoa" version="24.3.1" type="device">
  <diagram name="Halaman-1" id="YHXQUmiIp-1tPmCTTrUp">
    <mxGraphModel dx="3498" dy="2609" grid="1" gridSize="10" guides="1" tooltips="1" connect="1" arrows="1" fold="1" page="1" pageScale="1" pageWidth="1200" pageHeight="1600" math="0" shadow="0">
      <root>
        <mxCell id="0" />
        <mxCell id="1" parent="0" />
        <mxCell id="zYYB2izVf0wrOWul3t_G-1" value="start" style="strokeWidth=2;html=1;shape=mxgraph.flowchart.terminator;whiteSpace=wrap;" parent="1" vertex="1">
          <mxGeometry x="2335" y="-35" width="130" height="65" as="geometry" />
        </mxCell>
        <mxCell id="bZSZNWa_KJ6TkrD143hS-364" style="edgeStyle=orthogonalEdgeStyle;rounded=0;orthogonalLoop=1;jettySize=auto;html=1;exitX=0.5;exitY=1;exitDx=0;exitDy=0;exitPerimeter=0;entryX=0.75;entryY=0;entryDx=0;entryDy=0;" edge="1" parent="1" source="BRCq66YhKApSxifKRfjB-3" target="BRCq66YhKApSxifKRfjB-20">
          <mxGeometry relative="1" as="geometry" />
        </mxCell>
        <mxCell id="BRCq66YhKApSxifKRfjB-3" value="IF == 1. Admin" style="strokeWidth=2;html=1;shape=mxgraph.flowchart.decision;whiteSpace=wrap;" parent="1" vertex="1">
          <mxGeometry x="1620" y="480" width="100" height="100" as="geometry" />
        </mxCell>
        <mxCell id="BRCq66YhKApSxifKRfjB-4" value="menu utama" style="rounded=1;whiteSpace=wrap;html=1;absoluteArcSize=1;arcSize=14;strokeWidth=2;" parent="1" vertex="1">
          <mxGeometry x="2315" y="180" width="170" height="70" as="geometry" />
        </mxCell>
        <mxCell id="BRCq66YhKApSxifKRfjB-5" value="ragam_hayati" style="strokeWidth=2;html=1;shape=mxgraph.flowchart.database;whiteSpace=wrap;" parent="1" vertex="1">
          <mxGeometry x="2335" y="60" width="130" height="90" as="geometry" />
        </mxCell>
        <mxCell id="bZSZNWa_KJ6TkrD143hS-366" style="edgeStyle=orthogonalEdgeStyle;rounded=0;orthogonalLoop=1;jettySize=auto;html=1;exitX=0.5;exitY=1;exitDx=0;exitDy=0;exitPerimeter=0;entryX=0.5;entryY=0;entryDx=0;entryDy=0;" edge="1" parent="1" source="BRCq66YhKApSxifKRfjB-6" target="BRCq66YhKApSxifKRfjB-21">
          <mxGeometry relative="1" as="geometry" />
        </mxCell>
        <mxCell id="BRCq66YhKApSxifKRfjB-6" value="IF == 2.User" style="strokeWidth=2;html=1;shape=mxgraph.flowchart.decision;whiteSpace=wrap;" parent="1" vertex="1">
          <mxGeometry x="2220" y="490" width="100" height="100" as="geometry" />
        </mxCell>
        <mxCell id="bZSZNWa_KJ6TkrD143hS-370" value="" style="edgeStyle=orthogonalEdgeStyle;rounded=0;orthogonalLoop=1;jettySize=auto;html=1;" edge="1" parent="1" source="BRCq66YhKApSxifKRfjB-7" target="BRCq66YhKApSxifKRfjB-6">
          <mxGeometry relative="1" as="geometry" />
        </mxCell>
        <mxCell id="bZSZNWa_KJ6TkrD143hS-371" style="edgeStyle=orthogonalEdgeStyle;rounded=0;orthogonalLoop=1;jettySize=auto;html=1;" edge="1" parent="1" source="BRCq66YhKApSxifKRfjB-7" target="BRCq66YhKApSxifKRfjB-3">
          <mxGeometry relative="1" as="geometry" />
        </mxCell>
        <mxCell id="BRCq66YhKApSxifKRfjB-7" value="masukkan piihan menu utama:&lt;div&gt;1. admin, 2. user, 0. keluar&lt;/div&gt;" style="shape=parallelogram;html=1;strokeWidth=2;perimeter=parallelogramPerimeter;whiteSpace=wrap;rounded=1;arcSize=12;size=0.23;" parent="1" vertex="1">
          <mxGeometry x="2150" y="320" width="240" height="90" as="geometry" />
        </mxCell>
        <mxCell id="bZSZNWa_KJ6TkrD143hS-369" value="" style="edgeStyle=orthogonalEdgeStyle;rounded=0;orthogonalLoop=1;jettySize=auto;html=1;" edge="1" parent="1" source="BRCq66YhKApSxifKRfjB-8" target="BRCq66YhKApSxifKRfjB-12">
          <mxGeometry relative="1" as="geometry" />
        </mxCell>
        <mxCell id="BRCq66YhKApSxifKRfjB-8" value="if == 0. Keluar" style="strokeWidth=2;html=1;shape=mxgraph.flowchart.decision;whiteSpace=wrap;" parent="1" vertex="1">
          <mxGeometry x="2725" y="490" width="100" height="100" as="geometry" />
        </mxCell>
        <mxCell id="BRCq66YhKApSxifKRfjB-9" value="masukkan pilihan menu admin:&lt;div&gt;1. Kelola Data Satwa&lt;/div&gt;&lt;div&gt;2. Kelola Data Kawasan Konservasi&lt;/div&gt;&lt;div&gt;3. Kelola Data Berita&lt;/div&gt;&lt;div&gt;&lt;span style=&quot;background-color: initial;&quot;&gt;0. Keluar&lt;/span&gt;&amp;nbsp;&lt;/div&gt;" style="shape=parallelogram;html=1;strokeWidth=2;perimeter=parallelogramPerimeter;whiteSpace=wrap;rounded=1;arcSize=12;size=0.23;" parent="1" vertex="1">
          <mxGeometry x="1480" y="760" width="300" height="115" as="geometry" />
        </mxCell>
        <mxCell id="bZSZNWa_KJ6TkrD143hS-346" value="" style="edgeStyle=orthogonalEdgeStyle;rounded=0;orthogonalLoop=1;jettySize=auto;html=1;" edge="1" parent="1" source="BRCq66YhKApSxifKRfjB-11" target="bZSZNWa_KJ6TkrD143hS-174">
          <mxGeometry relative="1" as="geometry" />
        </mxCell>
        <mxCell id="BRCq66YhKApSxifKRfjB-11" value="&lt;div&gt;&lt;br&gt;&lt;/div&gt;&lt;div&gt;&lt;br&gt;&lt;/div&gt;&lt;div&gt;&lt;br&gt;&lt;/div&gt;&lt;div&gt;&lt;br&gt;&lt;/div&gt;&lt;div&gt;&lt;br&gt;&lt;/div&gt;&lt;div&gt;&lt;br&gt;&lt;/div&gt;&lt;div&gt;&lt;span style=&quot;background-color: initial;&quot;&gt;masukkan pilihan menu user:&lt;/span&gt;&lt;br&gt;&lt;/div&gt;&lt;div&gt;&lt;div&gt;1. Tampilkan Data Satwa&lt;/div&gt;&lt;div&gt;2. Cari Satwa Berdasarkan Nama&lt;/div&gt;&lt;div&gt;3. Tampilkan Data Berita (Terlama)&amp;nbsp; &amp;nbsp; &amp;nbsp; &amp;nbsp;&lt;/div&gt;&lt;div&gt;4. Tampilkan Data Berita (Terbaru)&lt;/div&gt;&lt;div&gt;5. Tampilkan Data Kawasan Konservasi&lt;/div&gt;&lt;div&gt;0. Keluar&lt;/div&gt;&lt;div&gt;&lt;span style=&quot;color: rgba(0, 0, 0, 0); font-family: monospace; font-size: 0px; text-align: start; text-wrap: nowrap;&quot;&gt;%3CmxGraphModel%3E%3Croot%3E%3CmxCell%20id%3D%220%22%2F%3E%3CmxCell%20id%3D%221%22%20parent%3D%220%22%2F%3E%3CmxCell%20id%3D%222%22%20value%3D%22masukkan%20pilihan%20menu%20admin%3A%26lt%3Bdiv%26gt%3B1.%20Kelola%20Data%20Satwa%26lt%3B%2Fdiv%26gt%3B%26lt%3Bdiv%26gt%3B2.%20Kelola%20Data%20Kawasan%20Konservasi%26lt%3B%2Fdiv%26gt%3B%26lt%3Bdiv%26gt%3B3.%20Kelola%20Data%20Berita%26lt%3B%2Fdiv%26gt%3B%26lt%3Bdiv%26gt%3B%26lt%3Bspan%20style%3D%26quot%3Bbackground-color%3A%20initial%3B%26quot%3B%26gt%3B0.%20Keluar%26lt%3B%2Fspan%26gt%3B%26amp%3Bnbsp%3B%26lt%3B%2Fdiv%26gt%3B%22%20style%3D%22shape%3Dparallelogram%3Bhtml%3D1%3BstrokeWidth%3D2%3Bperimeter%3DparallelogramPerimeter%3BwhiteSpace%3Dwrap%3Brounded%3D1%3BarcSize%3D12%3Bsize%3D0.23%3B%22%20vertex%3D%221%22%20parent%3D%221%22%3E%3CmxGeometry%20x%3D%221500%22%20y%3D%22635%22%20width%3D%22300%22%20height%3D%22115%22%20as%3D%22geometry%22%2F%3E%3C%2FmxCell%3E%3C%2Froot%3E%3C%2FmxGraphModel%3E&lt;/span&gt;&lt;font face=&quot;monospace&quot; color=&quot;rgba(0, 0, 0, 0)&quot;&gt;&lt;span style=&quot;font-size: 0px; text-wrap: nowrap;&quot;&gt;&lt;span style=&quot;background-color: initial;&quot;&gt;1. Tampilkan Data Satwa&lt;/span&gt;&lt;br&gt;&lt;/span&gt;&lt;/font&gt;&lt;/div&gt;&lt;div style=&quot;text-align: start;&quot;&gt;&lt;font face=&quot;monospace&quot; color=&quot;rgba(0, 0, 0, 0)&quot;&gt;&lt;span style=&quot;font-size: 0px; text-wrap: nowrap;&quot;&gt;2. Cari Satwa Berdasarkan Nama&lt;/span&gt;&lt;/font&gt;&lt;/div&gt;&lt;div style=&quot;text-align: start;&quot;&gt;&lt;font face=&quot;monospace&quot; color=&quot;rgba(0, 0, 0, 0)&quot;&gt;&lt;span style=&quot;font-size: 0px; text-wrap: nowrap;&quot;&gt;3. Tampilkan Data Berita (Terlama)&amp;nbsp; &amp;nbsp; &amp;nbsp; &amp;nbsp;&lt;/span&gt;&lt;/font&gt;&lt;/div&gt;&lt;div style=&quot;text-align: start;&quot;&gt;&lt;font face=&quot;monospace&quot; color=&quot;rgba(0, 0, 0, 0)&quot;&gt;&lt;span style=&quot;font-size: 0px; text-wrap: nowrap;&quot;&gt;4. Tampilkan Data Berita (Terbaru)&lt;/span&gt;&lt;/font&gt;&lt;/div&gt;&lt;div style=&quot;text-align: start;&quot;&gt;&lt;font face=&quot;monospace&quot; color=&quot;rgba(0, 0, 0, 0)&quot;&gt;&lt;span style=&quot;font-size: 0px; text-wrap: nowrap;&quot;&gt;5. Tampilkan Data Kawasan Konservasi&lt;/span&gt;&lt;/font&gt;&lt;/div&gt;&lt;div style=&quot;text-align: start;&quot;&gt;&lt;font face=&quot;monospace&quot; color=&quot;rgba(0, 0, 0, 0)&quot;&gt;&lt;span style=&quot;font-size: 0px; text-wrap: nowrap;&quot;&gt;0. Kel&lt;/span&gt;&lt;/font&gt;&lt;/div&gt;&lt;/div&gt;" style="shape=parallelogram;html=1;strokeWidth=2;perimeter=parallelogramPerimeter;whiteSpace=wrap;rounded=1;arcSize=12;size=0.23;" parent="1" vertex="1">
          <mxGeometry x="2040" y="760" width="360" height="125" as="geometry" />
        </mxCell>
        <mxCell id="bZSZNWa_KJ6TkrD143hS-368" style="edgeStyle=orthogonalEdgeStyle;rounded=0;orthogonalLoop=1;jettySize=auto;html=1;entryX=1;entryY=0.5;entryDx=0;entryDy=0;" edge="1" parent="1" source="BRCq66YhKApSxifKRfjB-12" target="BRCq66YhKApSxifKRfjB-7">
          <mxGeometry relative="1" as="geometry">
            <Array as="points">
              <mxPoint x="4490" y="865" />
              <mxPoint x="4490" y="365" />
            </Array>
          </mxGeometry>
        </mxCell>
        <mxCell id="BRCq66YhKApSxifKRfjB-12" value="program selesai" style="rounded=1;whiteSpace=wrap;html=1;absoluteArcSize=1;arcSize=14;strokeWidth=2;" parent="1" vertex="1">
          <mxGeometry x="2635" y="655" width="280" height="80" as="geometry" />
        </mxCell>
        <mxCell id="bZSZNWa_KJ6TkrD143hS-166" value="" style="edgeStyle=orthogonalEdgeStyle;rounded=0;orthogonalLoop=1;jettySize=auto;html=1;" edge="1" parent="1" source="BRCq66YhKApSxifKRfjB-16" target="BRCq66YhKApSxifKRfjB-22">
          <mxGeometry relative="1" as="geometry" />
        </mxCell>
        <mxCell id="BRCq66YhKApSxifKRfjB-16" value="IF == 1" style="strokeWidth=2;html=1;shape=mxgraph.flowchart.decision;whiteSpace=wrap;" parent="1" vertex="1">
          <mxGeometry x="547.5" y="940" width="100" height="100" as="geometry" />
        </mxCell>
        <mxCell id="bZSZNWa_KJ6TkrD143hS-165" value="" style="edgeStyle=orthogonalEdgeStyle;rounded=0;orthogonalLoop=1;jettySize=auto;html=1;" edge="1" parent="1" source="BRCq66YhKApSxifKRfjB-17" target="BRCq66YhKApSxifKRfjB-26">
          <mxGeometry relative="1" as="geometry" />
        </mxCell>
        <mxCell id="BRCq66YhKApSxifKRfjB-17" value="ELIF == 2" style="strokeWidth=2;html=1;shape=mxgraph.flowchart.decision;whiteSpace=wrap;" parent="1" vertex="1">
          <mxGeometry x="1015" y="940" width="100" height="100" as="geometry" />
        </mxCell>
        <mxCell id="bZSZNWa_KJ6TkrD143hS-164" value="" style="edgeStyle=orthogonalEdgeStyle;rounded=0;orthogonalLoop=1;jettySize=auto;html=1;" edge="1" parent="1" source="BRCq66YhKApSxifKRfjB-18" target="BRCq66YhKApSxifKRfjB-25">
          <mxGeometry relative="1" as="geometry" />
        </mxCell>
        <mxCell id="BRCq66YhKApSxifKRfjB-18" value="IF == 3" style="strokeWidth=2;html=1;shape=mxgraph.flowchart.decision;whiteSpace=wrap;" parent="1" vertex="1">
          <mxGeometry x="1445" y="950" width="100" height="100" as="geometry" />
        </mxCell>
        <mxCell id="bZSZNWa_KJ6TkrD143hS-167" value="" style="edgeStyle=orthogonalEdgeStyle;rounded=0;orthogonalLoop=1;jettySize=auto;html=1;" edge="1" parent="1" source="BRCq66YhKApSxifKRfjB-19" target="BRCq66YhKApSxifKRfjB-24">
          <mxGeometry relative="1" as="geometry" />
        </mxCell>
        <mxCell id="BRCq66YhKApSxifKRfjB-19" value="ELSE == 4" style="strokeWidth=2;html=1;shape=mxgraph.flowchart.decision;whiteSpace=wrap;" parent="1" vertex="1">
          <mxGeometry x="1765" y="950" width="100" height="100" as="geometry" />
        </mxCell>
        <mxCell id="bZSZNWa_KJ6TkrD143hS-365" value="" style="edgeStyle=orthogonalEdgeStyle;rounded=0;orthogonalLoop=1;jettySize=auto;html=1;" edge="1" parent="1" source="BRCq66YhKApSxifKRfjB-20" target="BRCq66YhKApSxifKRfjB-9">
          <mxGeometry relative="1" as="geometry" />
        </mxCell>
        <mxCell id="BRCq66YhKApSxifKRfjB-20" value="LOGIN ADMIN" style="shape=parallelogram;html=1;strokeWidth=2;perimeter=parallelogramPerimeter;whiteSpace=wrap;rounded=1;arcSize=12;size=0.23;" parent="1" vertex="1">
          <mxGeometry x="1550" y="620" width="160" height="70" as="geometry" />
        </mxCell>
        <mxCell id="bZSZNWa_KJ6TkrD143hS-367" value="" style="edgeStyle=orthogonalEdgeStyle;rounded=0;orthogonalLoop=1;jettySize=auto;html=1;" edge="1" parent="1" source="BRCq66YhKApSxifKRfjB-21" target="BRCq66YhKApSxifKRfjB-11">
          <mxGeometry relative="1" as="geometry" />
        </mxCell>
        <mxCell id="BRCq66YhKApSxifKRfjB-21" value="LOGIN USER" style="shape=parallelogram;html=1;strokeWidth=2;perimeter=parallelogramPerimeter;whiteSpace=wrap;rounded=1;arcSize=12;size=0.23;" parent="1" vertex="1">
          <mxGeometry x="2190" y="620" width="160" height="70" as="geometry" />
        </mxCell>
        <mxCell id="bZSZNWa_KJ6TkrD143hS-163" style="edgeStyle=orthogonalEdgeStyle;rounded=0;orthogonalLoop=1;jettySize=auto;html=1;" edge="1" parent="1" source="BRCq66YhKApSxifKRfjB-22" target="BRCq66YhKApSxifKRfjB-40">
          <mxGeometry relative="1" as="geometry" />
        </mxCell>
        <mxCell id="BRCq66YhKApSxifKRfjB-22" value="PRINT menu satwa" style="rounded=1;whiteSpace=wrap;html=1;absoluteArcSize=1;arcSize=14;strokeWidth=2;" parent="1" vertex="1">
          <mxGeometry x="492.5" y="1100" width="210" height="70" as="geometry" />
        </mxCell>
        <mxCell id="BRCq66YhKApSxifKRfjB-24" value="PRINT keluar dari menu admin" style="rounded=1;whiteSpace=wrap;html=1;absoluteArcSize=1;arcSize=14;strokeWidth=2;" parent="1" vertex="1">
          <mxGeometry x="1710" y="1100" width="210" height="70" as="geometry" />
        </mxCell>
        <mxCell id="bZSZNWa_KJ6TkrD143hS-161" value="" style="edgeStyle=orthogonalEdgeStyle;rounded=0;orthogonalLoop=1;jettySize=auto;html=1;" edge="1" parent="1" source="BRCq66YhKApSxifKRfjB-25" target="bZSZNWa_KJ6TkrD143hS-93">
          <mxGeometry relative="1" as="geometry" />
        </mxCell>
        <mxCell id="BRCq66YhKApSxifKRfjB-25" value="PRINT menu berita" style="rounded=1;whiteSpace=wrap;html=1;absoluteArcSize=1;arcSize=14;strokeWidth=2;" parent="1" vertex="1">
          <mxGeometry x="1390" y="1100" width="210" height="70" as="geometry" />
        </mxCell>
        <mxCell id="bZSZNWa_KJ6TkrD143hS-162" value="" style="edgeStyle=orthogonalEdgeStyle;rounded=0;orthogonalLoop=1;jettySize=auto;html=1;" edge="1" parent="1" source="BRCq66YhKApSxifKRfjB-26" target="bZSZNWa_KJ6TkrD143hS-14">
          <mxGeometry relative="1" as="geometry" />
        </mxCell>
        <mxCell id="BRCq66YhKApSxifKRfjB-26" value="PRINT menu kawasan konservasi" style="rounded=1;whiteSpace=wrap;html=1;absoluteArcSize=1;arcSize=14;strokeWidth=2;" parent="1" vertex="1">
          <mxGeometry x="957.5" y="1100" width="210" height="70" as="geometry" />
        </mxCell>
        <mxCell id="bZSZNWa_KJ6TkrD143hS-23" value="" style="edgeStyle=orthogonalEdgeStyle;rounded=0;orthogonalLoop=1;jettySize=auto;html=1;" edge="1" parent="1" source="BRCq66YhKApSxifKRfjB-31" target="bZSZNWa_KJ6TkrD143hS-11">
          <mxGeometry relative="1" as="geometry" />
        </mxCell>
        <mxCell id="BRCq66YhKApSxifKRfjB-31" value="ELIF == 5" style="strokeWidth=2;html=1;shape=mxgraph.flowchart.decision;whiteSpace=wrap;" parent="1" vertex="1">
          <mxGeometry x="-260" y="2100" width="100" height="100" as="geometry" />
        </mxCell>
        <mxCell id="bZSZNWa_KJ6TkrD143hS-24" value="" style="edgeStyle=orthogonalEdgeStyle;rounded=0;orthogonalLoop=1;jettySize=auto;html=1;" edge="1" parent="1" source="BRCq66YhKApSxifKRfjB-32" target="BRCq66YhKApSxifKRfjB-49">
          <mxGeometry relative="1" as="geometry" />
        </mxCell>
        <mxCell id="BRCq66YhKApSxifKRfjB-32" value="ELIF == 4" style="strokeWidth=2;html=1;shape=mxgraph.flowchart.decision;whiteSpace=wrap;" parent="1" vertex="1">
          <mxGeometry x="-260" y="1960" width="100" height="100" as="geometry" />
        </mxCell>
        <mxCell id="bZSZNWa_KJ6TkrD143hS-25" value="" style="edgeStyle=orthogonalEdgeStyle;rounded=0;orthogonalLoop=1;jettySize=auto;html=1;" edge="1" parent="1" source="BRCq66YhKApSxifKRfjB-33" target="BRCq66YhKApSxifKRfjB-45">
          <mxGeometry relative="1" as="geometry" />
        </mxCell>
        <mxCell id="BRCq66YhKApSxifKRfjB-33" value="ELIF == 3" style="strokeWidth=2;html=1;shape=mxgraph.flowchart.decision;whiteSpace=wrap;" parent="1" vertex="1">
          <mxGeometry x="-260" y="1820" width="100" height="100" as="geometry" />
        </mxCell>
        <mxCell id="bZSZNWa_KJ6TkrD143hS-17" value="" style="edgeStyle=orthogonalEdgeStyle;rounded=0;orthogonalLoop=1;jettySize=auto;html=1;" edge="1" parent="1" source="BRCq66YhKApSxifKRfjB-34" target="BRCq66YhKApSxifKRfjB-33">
          <mxGeometry relative="1" as="geometry" />
        </mxCell>
        <mxCell id="bZSZNWa_KJ6TkrD143hS-26" value="" style="edgeStyle=orthogonalEdgeStyle;rounded=0;orthogonalLoop=1;jettySize=auto;html=1;" edge="1" parent="1" source="BRCq66YhKApSxifKRfjB-34" target="BRCq66YhKApSxifKRfjB-46">
          <mxGeometry relative="1" as="geometry" />
        </mxCell>
        <mxCell id="BRCq66YhKApSxifKRfjB-34" value="ELIF == 2" style="strokeWidth=2;html=1;shape=mxgraph.flowchart.decision;whiteSpace=wrap;" parent="1" vertex="1">
          <mxGeometry x="-260" y="1660" width="100" height="100" as="geometry" />
        </mxCell>
        <mxCell id="bZSZNWa_KJ6TkrD143hS-16" value="" style="edgeStyle=orthogonalEdgeStyle;rounded=0;orthogonalLoop=1;jettySize=auto;html=1;" edge="1" parent="1" source="BRCq66YhKApSxifKRfjB-35" target="BRCq66YhKApSxifKRfjB-34">
          <mxGeometry relative="1" as="geometry" />
        </mxCell>
        <mxCell id="bZSZNWa_KJ6TkrD143hS-31" value="" style="edgeStyle=orthogonalEdgeStyle;rounded=0;orthogonalLoop=1;jettySize=auto;html=1;" edge="1" parent="1" source="BRCq66YhKApSxifKRfjB-35" target="BRCq66YhKApSxifKRfjB-39">
          <mxGeometry relative="1" as="geometry" />
        </mxCell>
        <mxCell id="BRCq66YhKApSxifKRfjB-35" value="IF == 1" style="strokeWidth=2;html=1;shape=mxgraph.flowchart.decision;whiteSpace=wrap;" parent="1" vertex="1">
          <mxGeometry x="-260" y="1480" width="100" height="100" as="geometry" />
        </mxCell>
        <mxCell id="bZSZNWa_KJ6TkrD143hS-22" value="" style="edgeStyle=orthogonalEdgeStyle;rounded=0;orthogonalLoop=1;jettySize=auto;html=1;" edge="1" parent="1" source="BRCq66YhKApSxifKRfjB-37" target="bZSZNWa_KJ6TkrD143hS-13">
          <mxGeometry relative="1" as="geometry" />
        </mxCell>
        <mxCell id="bZSZNWa_KJ6TkrD143hS-154" value="" style="edgeStyle=orthogonalEdgeStyle;rounded=0;orthogonalLoop=1;jettySize=auto;html=1;" edge="1" parent="1" source="BRCq66YhKApSxifKRfjB-37" target="bZSZNWa_KJ6TkrD143hS-153">
          <mxGeometry relative="1" as="geometry" />
        </mxCell>
        <mxCell id="BRCq66YhKApSxifKRfjB-37" value="ELIF == 0" style="strokeWidth=2;html=1;shape=mxgraph.flowchart.decision;whiteSpace=wrap;" parent="1" vertex="1">
          <mxGeometry x="-260" y="2260" width="100" height="100" as="geometry" />
        </mxCell>
        <mxCell id="BRCq66YhKApSxifKRfjB-39" value="PRINT data satwa" style="rounded=1;whiteSpace=wrap;html=1;absoluteArcSize=1;arcSize=14;strokeWidth=2;" parent="1" vertex="1">
          <mxGeometry x="-115" y="1507.5" width="120" height="45" as="geometry" />
        </mxCell>
        <mxCell id="bZSZNWa_KJ6TkrD143hS-15" style="edgeStyle=orthogonalEdgeStyle;rounded=0;orthogonalLoop=1;jettySize=auto;html=1;exitX=0.25;exitY=1;exitDx=0;exitDy=0;" edge="1" parent="1" source="BRCq66YhKApSxifKRfjB-40" target="BRCq66YhKApSxifKRfjB-35">
          <mxGeometry relative="1" as="geometry" />
        </mxCell>
        <mxCell id="BRCq66YhKApSxifKRfjB-40" value="&lt;div&gt;MASUKKAN Menu Satwa:&lt;/div&gt;&lt;div&gt;1. Tampilkan Data Satwa&lt;/div&gt;&lt;div&gt;2. Tambah Data Satwa&lt;/div&gt;&lt;div&gt;3. Hapus Data Satwa&lt;/div&gt;&lt;div&gt;4. Cari Satwa&lt;/div&gt;&lt;div&gt;5. Update Data Satwa&lt;/div&gt;&lt;div&gt;0. Kembali ke Menu admin&lt;/div&gt;" style="shape=parallelogram;html=1;strokeWidth=2;perimeter=parallelogramPerimeter;whiteSpace=wrap;rounded=1;arcSize=12;size=0.23;" parent="1" vertex="1">
          <mxGeometry x="405" y="1290" width="385" height="120" as="geometry" />
        </mxCell>
        <mxCell id="BRCq66YhKApSxifKRfjB-42" value="MASUKKAN data satwa:&amp;nbsp;&lt;div&gt;(id, nama, ordo, id kawasan, status perlindungan&amp;nbsp;&lt;/div&gt;" style="shape=parallelogram;html=1;strokeWidth=2;perimeter=parallelogramPerimeter;whiteSpace=wrap;rounded=1;arcSize=12;size=0.23;" parent="1" vertex="1">
          <mxGeometry x="90" y="1660" width="250" height="100" as="geometry" />
        </mxCell>
        <mxCell id="BRCq66YhKApSxifKRfjB-43" value="PRINT data berhasil ditambahkan" style="rounded=1;whiteSpace=wrap;html=1;absoluteArcSize=1;arcSize=14;strokeWidth=2;" parent="1" vertex="1">
          <mxGeometry x="360" y="1685" width="160" height="50" as="geometry" />
        </mxCell>
        <mxCell id="bZSZNWa_KJ6TkrD143hS-38" value="" style="edgeStyle=orthogonalEdgeStyle;rounded=0;orthogonalLoop=1;jettySize=auto;html=1;" edge="1" parent="1" source="BRCq66YhKApSxifKRfjB-44" target="BRCq66YhKApSxifKRfjB-47">
          <mxGeometry relative="1" as="geometry" />
        </mxCell>
        <mxCell id="BRCq66YhKApSxifKRfjB-44" value="MASUKKAN id satwa" style="shape=parallelogram;html=1;strokeWidth=2;perimeter=parallelogramPerimeter;whiteSpace=wrap;rounded=1;arcSize=12;size=0.23;" parent="1" vertex="1">
          <mxGeometry x="80" y="1835" width="170" height="70" as="geometry" />
        </mxCell>
        <mxCell id="bZSZNWa_KJ6TkrD143hS-28" value="" style="edgeStyle=orthogonalEdgeStyle;rounded=0;orthogonalLoop=1;jettySize=auto;html=1;" edge="1" parent="1" source="BRCq66YhKApSxifKRfjB-45" target="BRCq66YhKApSxifKRfjB-44">
          <mxGeometry relative="1" as="geometry" />
        </mxCell>
        <mxCell id="BRCq66YhKApSxifKRfjB-45" value="HAPUS DATA" style="rounded=1;whiteSpace=wrap;html=1;absoluteArcSize=1;arcSize=14;strokeWidth=2;" parent="1" vertex="1">
          <mxGeometry x="-110" y="1850" width="120" height="40" as="geometry" />
        </mxCell>
        <mxCell id="bZSZNWa_KJ6TkrD143hS-29" value="" style="edgeStyle=orthogonalEdgeStyle;rounded=0;orthogonalLoop=1;jettySize=auto;html=1;" edge="1" parent="1" source="BRCq66YhKApSxifKRfjB-46" target="BRCq66YhKApSxifKRfjB-42">
          <mxGeometry relative="1" as="geometry" />
        </mxCell>
        <mxCell id="BRCq66YhKApSxifKRfjB-46" value="TAMBAHKAN DATA" style="rounded=1;whiteSpace=wrap;html=1;absoluteArcSize=1;arcSize=14;strokeWidth=2;" parent="1" vertex="1">
          <mxGeometry x="-115" y="1687.5" width="130" height="45" as="geometry" />
        </mxCell>
        <mxCell id="BRCq66YhKApSxifKRfjB-47" value="PRINT data berhasil dihapus" style="rounded=1;whiteSpace=wrap;html=1;absoluteArcSize=1;arcSize=14;strokeWidth=2;" parent="1" vertex="1">
          <mxGeometry x="320" y="1845" width="200" height="50" as="geometry" />
        </mxCell>
        <mxCell id="bZSZNWa_KJ6TkrD143hS-27" value="" style="edgeStyle=orthogonalEdgeStyle;rounded=0;orthogonalLoop=1;jettySize=auto;html=1;" edge="1" parent="1" source="BRCq66YhKApSxifKRfjB-49" target="bZSZNWa_KJ6TkrD143hS-5">
          <mxGeometry relative="1" as="geometry" />
        </mxCell>
        <mxCell id="BRCq66YhKApSxifKRfjB-49" value="CARI DATA" style="rounded=1;whiteSpace=wrap;html=1;absoluteArcSize=1;arcSize=14;strokeWidth=2;" parent="1" vertex="1">
          <mxGeometry x="-102.5" y="1990" width="107.5" height="40" as="geometry" />
        </mxCell>
        <mxCell id="bZSZNWa_KJ6TkrD143hS-34" value="" style="edgeStyle=orthogonalEdgeStyle;rounded=0;orthogonalLoop=1;jettySize=auto;html=1;" edge="1" parent="1" source="BRCq66YhKApSxifKRfjB-51" target="bZSZNWa_KJ6TkrD143hS-6">
          <mxGeometry relative="1" as="geometry" />
        </mxCell>
        <mxCell id="BRCq66YhKApSxifKRfjB-51" value="IF ==&lt;div&gt;1: nama&lt;/div&gt;" style="strokeWidth=2;html=1;shape=mxgraph.flowchart.decision;whiteSpace=wrap;" parent="1" vertex="1">
          <mxGeometry x="230" y="1930" width="70" height="70" as="geometry" />
        </mxCell>
        <mxCell id="bZSZNWa_KJ6TkrD143hS-35" value="" style="edgeStyle=orthogonalEdgeStyle;rounded=0;orthogonalLoop=1;jettySize=auto;html=1;" edge="1" parent="1" source="bZSZNWa_KJ6TkrD143hS-1" target="bZSZNWa_KJ6TkrD143hS-7">
          <mxGeometry relative="1" as="geometry" />
        </mxCell>
        <mxCell id="bZSZNWa_KJ6TkrD143hS-1" value="IF ==&lt;div&gt;1: ID&lt;/div&gt;" style="strokeWidth=2;html=1;shape=mxgraph.flowchart.decision;whiteSpace=wrap;" vertex="1" parent="1">
          <mxGeometry x="230" y="2030" width="70" height="70" as="geometry" />
        </mxCell>
        <mxCell id="bZSZNWa_KJ6TkrD143hS-32" style="edgeStyle=orthogonalEdgeStyle;rounded=0;orthogonalLoop=1;jettySize=auto;html=1;exitX=1;exitY=0.25;exitDx=0;exitDy=0;" edge="1" parent="1" source="bZSZNWa_KJ6TkrD143hS-5" target="BRCq66YhKApSxifKRfjB-51">
          <mxGeometry relative="1" as="geometry" />
        </mxCell>
        <mxCell id="bZSZNWa_KJ6TkrD143hS-33" style="edgeStyle=orthogonalEdgeStyle;rounded=0;orthogonalLoop=1;jettySize=auto;html=1;exitX=1;exitY=0.25;exitDx=0;exitDy=0;" edge="1" parent="1" source="bZSZNWa_KJ6TkrD143hS-5" target="bZSZNWa_KJ6TkrD143hS-1">
          <mxGeometry relative="1" as="geometry" />
        </mxCell>
        <mxCell id="bZSZNWa_KJ6TkrD143hS-5" value="MASUKKAN&lt;div&gt;nama/id&lt;/div&gt;" style="shape=parallelogram;html=1;strokeWidth=2;perimeter=parallelogramPerimeter;whiteSpace=wrap;rounded=1;arcSize=12;size=0.23;" vertex="1" parent="1">
          <mxGeometry x="70" y="1980" width="110" height="60" as="geometry" />
        </mxCell>
        <mxCell id="bZSZNWa_KJ6TkrD143hS-36" value="" style="edgeStyle=orthogonalEdgeStyle;rounded=0;orthogonalLoop=1;jettySize=auto;html=1;" edge="1" parent="1" source="bZSZNWa_KJ6TkrD143hS-6" target="bZSZNWa_KJ6TkrD143hS-8">
          <mxGeometry relative="1" as="geometry" />
        </mxCell>
        <mxCell id="bZSZNWa_KJ6TkrD143hS-6" value="masukkan nama" style="shape=parallelogram;html=1;strokeWidth=2;perimeter=parallelogramPerimeter;whiteSpace=wrap;rounded=1;arcSize=12;size=0.23;" vertex="1" parent="1">
          <mxGeometry x="355" y="1935" width="130" height="60" as="geometry" />
        </mxCell>
        <mxCell id="bZSZNWa_KJ6TkrD143hS-37" value="" style="edgeStyle=orthogonalEdgeStyle;rounded=0;orthogonalLoop=1;jettySize=auto;html=1;" edge="1" parent="1" source="bZSZNWa_KJ6TkrD143hS-7" target="bZSZNWa_KJ6TkrD143hS-9">
          <mxGeometry relative="1" as="geometry" />
        </mxCell>
        <mxCell id="bZSZNWa_KJ6TkrD143hS-7" value="masukkan id" style="shape=parallelogram;html=1;strokeWidth=2;perimeter=parallelogramPerimeter;whiteSpace=wrap;rounded=1;arcSize=12;size=0.23;" vertex="1" parent="1">
          <mxGeometry x="340" y="2035" width="130" height="60" as="geometry" />
        </mxCell>
        <mxCell id="bZSZNWa_KJ6TkrD143hS-8" value="SEARCH nama dalam database" style="rounded=1;whiteSpace=wrap;html=1;absoluteArcSize=1;arcSize=14;strokeWidth=2;" vertex="1" parent="1">
          <mxGeometry x="520" y="1940" width="120" height="50" as="geometry" />
        </mxCell>
        <mxCell id="bZSZNWa_KJ6TkrD143hS-9" value="SEARCH id dalam database" style="rounded=1;whiteSpace=wrap;html=1;absoluteArcSize=1;arcSize=14;strokeWidth=2;" vertex="1" parent="1">
          <mxGeometry x="520" y="2040" width="120" height="50" as="geometry" />
        </mxCell>
        <mxCell id="bZSZNWa_KJ6TkrD143hS-40" value="" style="edgeStyle=orthogonalEdgeStyle;rounded=0;orthogonalLoop=1;jettySize=auto;html=1;" edge="1" parent="1" source="bZSZNWa_KJ6TkrD143hS-10" target="bZSZNWa_KJ6TkrD143hS-12">
          <mxGeometry relative="1" as="geometry" />
        </mxCell>
        <mxCell id="bZSZNWa_KJ6TkrD143hS-10" value="MASUKKAN data&lt;div&gt;&amp;nbsp;update satwa&lt;/div&gt;" style="shape=parallelogram;html=1;strokeWidth=2;perimeter=parallelogramPerimeter;whiteSpace=wrap;rounded=1;arcSize=12;size=0.23;" vertex="1" parent="1">
          <mxGeometry x="50" y="2120" width="170" height="60" as="geometry" />
        </mxCell>
        <mxCell id="bZSZNWa_KJ6TkrD143hS-39" value="" style="edgeStyle=orthogonalEdgeStyle;rounded=0;orthogonalLoop=1;jettySize=auto;html=1;" edge="1" parent="1" source="bZSZNWa_KJ6TkrD143hS-11" target="bZSZNWa_KJ6TkrD143hS-10">
          <mxGeometry relative="1" as="geometry" />
        </mxCell>
        <mxCell id="bZSZNWa_KJ6TkrD143hS-11" value="UPDATE DATA" style="rounded=1;whiteSpace=wrap;html=1;absoluteArcSize=1;arcSize=14;strokeWidth=2;" vertex="1" parent="1">
          <mxGeometry x="-90" y="2130" width="107.5" height="40" as="geometry" />
        </mxCell>
        <mxCell id="bZSZNWa_KJ6TkrD143hS-12" value="PRINT HASIL UPDATE" style="rounded=1;whiteSpace=wrap;html=1;absoluteArcSize=1;arcSize=14;strokeWidth=2;" vertex="1" parent="1">
          <mxGeometry x="250" y="2130" width="170" height="40" as="geometry" />
        </mxCell>
        <mxCell id="bZSZNWa_KJ6TkrD143hS-42" style="edgeStyle=orthogonalEdgeStyle;rounded=0;orthogonalLoop=1;jettySize=auto;html=1;exitX=0.5;exitY=1;exitDx=0;exitDy=0;entryX=0;entryY=0.25;entryDx=0;entryDy=0;" edge="1" parent="1" source="bZSZNWa_KJ6TkrD143hS-13" target="BRCq66YhKApSxifKRfjB-9">
          <mxGeometry relative="1" as="geometry">
            <Array as="points">
              <mxPoint x="-42" y="2310" />
              <mxPoint x="150" y="2310" />
              <mxPoint x="150" y="2550" />
              <mxPoint x="-380" y="2550" />
              <mxPoint x="-380" y="798" />
            </Array>
          </mxGeometry>
        </mxCell>
        <mxCell id="bZSZNWa_KJ6TkrD143hS-13" value="KEMBALI ke menu admin" style="rounded=1;whiteSpace=wrap;html=1;absoluteArcSize=1;arcSize=14;strokeWidth=2;" vertex="1" parent="1">
          <mxGeometry x="-102.5" y="2285" width="120" height="50" as="geometry" />
        </mxCell>
        <mxCell id="bZSZNWa_KJ6TkrD143hS-14" value="&lt;div&gt;MASUKKAN Menu Satwa:&lt;/div&gt;&lt;div&gt;&lt;div&gt;1. Kelola Data Satwa&lt;/div&gt;&lt;div&gt;2. Kelola Data Kawasan Konservasi&lt;/div&gt;&lt;div&gt;3. Kelola Data Berita&lt;/div&gt;&lt;div&gt;0. Keluar&lt;/div&gt;&lt;/div&gt;" style="shape=parallelogram;html=1;strokeWidth=2;perimeter=parallelogramPerimeter;whiteSpace=wrap;rounded=1;arcSize=12;size=0.23;" vertex="1" parent="1">
          <mxGeometry x="870" y="1280" width="385" height="120" as="geometry" />
        </mxCell>
        <mxCell id="bZSZNWa_KJ6TkrD143hS-18" style="edgeStyle=orthogonalEdgeStyle;rounded=0;orthogonalLoop=1;jettySize=auto;html=1;exitX=0.5;exitY=1;exitDx=0;exitDy=0;exitPerimeter=0;entryX=0.5;entryY=0;entryDx=0;entryDy=0;entryPerimeter=0;" edge="1" parent="1" source="BRCq66YhKApSxifKRfjB-33" target="BRCq66YhKApSxifKRfjB-32">
          <mxGeometry relative="1" as="geometry" />
        </mxCell>
        <mxCell id="bZSZNWa_KJ6TkrD143hS-20" style="edgeStyle=orthogonalEdgeStyle;rounded=0;orthogonalLoop=1;jettySize=auto;html=1;exitX=0.5;exitY=1;exitDx=0;exitDy=0;exitPerimeter=0;entryX=0.5;entryY=0;entryDx=0;entryDy=0;entryPerimeter=0;" edge="1" parent="1" source="BRCq66YhKApSxifKRfjB-31" target="BRCq66YhKApSxifKRfjB-37">
          <mxGeometry relative="1" as="geometry" />
        </mxCell>
        <mxCell id="bZSZNWa_KJ6TkrD143hS-21" style="edgeStyle=orthogonalEdgeStyle;rounded=0;orthogonalLoop=1;jettySize=auto;html=1;exitX=0.5;exitY=1;exitDx=0;exitDy=0;exitPerimeter=0;entryX=0.5;entryY=0;entryDx=0;entryDy=0;entryPerimeter=0;" edge="1" parent="1" source="BRCq66YhKApSxifKRfjB-32" target="BRCq66YhKApSxifKRfjB-31">
          <mxGeometry relative="1" as="geometry" />
        </mxCell>
        <mxCell id="bZSZNWa_KJ6TkrD143hS-43" style="edgeStyle=orthogonalEdgeStyle;rounded=0;orthogonalLoop=1;jettySize=auto;html=1;exitX=0.75;exitY=1;exitDx=0;exitDy=0;entryX=0.5;entryY=1;entryDx=0;entryDy=0;" edge="1" parent="1" source="BRCq66YhKApSxifKRfjB-39" target="BRCq66YhKApSxifKRfjB-39">
          <mxGeometry relative="1" as="geometry" />
        </mxCell>
        <mxCell id="bZSZNWa_KJ6TkrD143hS-45" value="" style="edgeStyle=orthogonalEdgeStyle;rounded=0;orthogonalLoop=1;jettySize=auto;html=1;" edge="1" parent="1" source="bZSZNWa_KJ6TkrD143hS-46" target="bZSZNWa_KJ6TkrD143hS-62">
          <mxGeometry relative="1" as="geometry" />
        </mxCell>
        <mxCell id="bZSZNWa_KJ6TkrD143hS-85" value="" style="edgeStyle=orthogonalEdgeStyle;rounded=0;orthogonalLoop=1;jettySize=auto;html=1;" edge="1" parent="1" source="bZSZNWa_KJ6TkrD143hS-46" target="bZSZNWa_KJ6TkrD143hS-84">
          <mxGeometry relative="1" as="geometry" />
        </mxCell>
        <mxCell id="bZSZNWa_KJ6TkrD143hS-46" value="ELIF == 3" style="strokeWidth=2;html=1;shape=mxgraph.flowchart.decision;whiteSpace=wrap;" vertex="1" parent="1">
          <mxGeometry x="670" y="1920" width="100" height="100" as="geometry" />
        </mxCell>
        <mxCell id="bZSZNWa_KJ6TkrD143hS-47" value="" style="edgeStyle=orthogonalEdgeStyle;rounded=0;orthogonalLoop=1;jettySize=auto;html=1;" edge="1" parent="1" source="bZSZNWa_KJ6TkrD143hS-48" target="bZSZNWa_KJ6TkrD143hS-57">
          <mxGeometry relative="1" as="geometry" />
        </mxCell>
        <mxCell id="bZSZNWa_KJ6TkrD143hS-48" value="ELIF == 2" style="strokeWidth=2;html=1;shape=mxgraph.flowchart.decision;whiteSpace=wrap;" vertex="1" parent="1">
          <mxGeometry x="670" y="1780" width="100" height="100" as="geometry" />
        </mxCell>
        <mxCell id="bZSZNWa_KJ6TkrD143hS-49" value="" style="edgeStyle=orthogonalEdgeStyle;rounded=0;orthogonalLoop=1;jettySize=auto;html=1;" edge="1" parent="1" source="bZSZNWa_KJ6TkrD143hS-51" target="bZSZNWa_KJ6TkrD143hS-48">
          <mxGeometry relative="1" as="geometry" />
        </mxCell>
        <mxCell id="bZSZNWa_KJ6TkrD143hS-50" value="" style="edgeStyle=orthogonalEdgeStyle;rounded=0;orthogonalLoop=1;jettySize=auto;html=1;" edge="1" parent="1" source="bZSZNWa_KJ6TkrD143hS-51" target="bZSZNWa_KJ6TkrD143hS-59">
          <mxGeometry relative="1" as="geometry" />
        </mxCell>
        <mxCell id="bZSZNWa_KJ6TkrD143hS-51" value="IF == 1" style="strokeWidth=2;html=1;shape=mxgraph.flowchart.decision;whiteSpace=wrap;" vertex="1" parent="1">
          <mxGeometry x="670" y="1620" width="100" height="100" as="geometry" />
        </mxCell>
        <mxCell id="bZSZNWa_KJ6TkrD143hS-330" style="edgeStyle=orthogonalEdgeStyle;rounded=0;orthogonalLoop=1;jettySize=auto;html=1;exitX=1;exitY=0.5;exitDx=0;exitDy=0;" edge="1" parent="1" source="bZSZNWa_KJ6TkrD143hS-55" target="bZSZNWa_KJ6TkrD143hS-329">
          <mxGeometry relative="1" as="geometry" />
        </mxCell>
        <mxCell id="bZSZNWa_KJ6TkrD143hS-55" value="MASUKKAN data&lt;div&gt;&amp;nbsp;kawasan konservasi&lt;/div&gt;" style="shape=parallelogram;html=1;strokeWidth=2;perimeter=parallelogramPerimeter;whiteSpace=wrap;rounded=1;arcSize=12;size=0.23;" vertex="1" parent="1">
          <mxGeometry x="957.5" y="1795" width="170" height="70" as="geometry" />
        </mxCell>
        <mxCell id="bZSZNWa_KJ6TkrD143hS-56" value="" style="edgeStyle=orthogonalEdgeStyle;rounded=0;orthogonalLoop=1;jettySize=auto;html=1;" edge="1" parent="1" source="bZSZNWa_KJ6TkrD143hS-57" target="bZSZNWa_KJ6TkrD143hS-55">
          <mxGeometry relative="1" as="geometry" />
        </mxCell>
        <mxCell id="bZSZNWa_KJ6TkrD143hS-57" value="TAMBAH DATA K. KONSERVASI" style="rounded=1;whiteSpace=wrap;html=1;absoluteArcSize=1;arcSize=14;strokeWidth=2;" vertex="1" parent="1">
          <mxGeometry x="820" y="1810" width="120" height="40" as="geometry" />
        </mxCell>
        <mxCell id="bZSZNWa_KJ6TkrD143hS-59" value="PRINT DATA KONSERVASI" style="rounded=1;whiteSpace=wrap;html=1;absoluteArcSize=1;arcSize=14;strokeWidth=2;" vertex="1" parent="1">
          <mxGeometry x="815" y="1647.5" width="130" height="45" as="geometry" />
        </mxCell>
        <mxCell id="bZSZNWa_KJ6TkrD143hS-60" value="PRINT data berhasil ditambahkan" style="rounded=1;whiteSpace=wrap;html=1;absoluteArcSize=1;arcSize=14;strokeWidth=2;" vertex="1" parent="1">
          <mxGeometry x="962.5" y="1650" width="167.5" height="50" as="geometry" />
        </mxCell>
        <mxCell id="bZSZNWa_KJ6TkrD143hS-88" value="" style="edgeStyle=orthogonalEdgeStyle;rounded=0;orthogonalLoop=1;jettySize=auto;html=1;" edge="1" parent="1" source="bZSZNWa_KJ6TkrD143hS-62" target="bZSZNWa_KJ6TkrD143hS-71">
          <mxGeometry relative="1" as="geometry" />
        </mxCell>
        <mxCell id="bZSZNWa_KJ6TkrD143hS-62" value="HAPUS DATA K. KONSERVASI" style="rounded=1;whiteSpace=wrap;html=1;absoluteArcSize=1;arcSize=14;strokeWidth=2;" vertex="1" parent="1">
          <mxGeometry x="827.5" y="1950" width="107.5" height="40" as="geometry" />
        </mxCell>
        <mxCell id="bZSZNWa_KJ6TkrD143hS-331" style="edgeStyle=orthogonalEdgeStyle;rounded=0;orthogonalLoop=1;jettySize=auto;html=1;exitX=1;exitY=0.5;exitDx=0;exitDy=0;" edge="1" parent="1" source="bZSZNWa_KJ6TkrD143hS-71" target="bZSZNWa_KJ6TkrD143hS-327">
          <mxGeometry relative="1" as="geometry" />
        </mxCell>
        <mxCell id="bZSZNWa_KJ6TkrD143hS-71" value="MASUKKAN data&amp;nbsp;&lt;div&gt;yang akan dihapus&lt;/div&gt;" style="shape=parallelogram;html=1;strokeWidth=2;perimeter=parallelogramPerimeter;whiteSpace=wrap;rounded=1;arcSize=12;size=0.23;" vertex="1" parent="1">
          <mxGeometry x="970" y="1940" width="170" height="60" as="geometry" />
        </mxCell>
        <mxCell id="bZSZNWa_KJ6TkrD143hS-334" value="" style="edgeStyle=orthogonalEdgeStyle;rounded=0;orthogonalLoop=1;jettySize=auto;html=1;" edge="1" parent="1" source="bZSZNWa_KJ6TkrD143hS-74" target="bZSZNWa_KJ6TkrD143hS-327">
          <mxGeometry relative="1" as="geometry" />
        </mxCell>
        <mxCell id="bZSZNWa_KJ6TkrD143hS-74" value="PRINT data berhasil dihapus" style="rounded=1;whiteSpace=wrap;html=1;absoluteArcSize=1;arcSize=14;strokeWidth=2;" vertex="1" parent="1">
          <mxGeometry x="1160" y="2050" width="120" height="50" as="geometry" />
        </mxCell>
        <mxCell id="bZSZNWa_KJ6TkrD143hS-89" style="edgeStyle=orthogonalEdgeStyle;rounded=0;orthogonalLoop=1;jettySize=auto;html=1;exitX=0.5;exitY=1;exitDx=0;exitDy=0;entryX=0;entryY=0.25;entryDx=0;entryDy=0;" edge="1" parent="1" source="bZSZNWa_KJ6TkrD143hS-79" target="BRCq66YhKApSxifKRfjB-9">
          <mxGeometry relative="1" as="geometry">
            <Array as="points">
              <mxPoint x="895" y="2550" />
              <mxPoint x="-380" y="2550" />
              <mxPoint x="-380" y="798" />
            </Array>
          </mxGeometry>
        </mxCell>
        <mxCell id="bZSZNWa_KJ6TkrD143hS-79" value="KEMBALI KE MENU ADMIN" style="rounded=1;whiteSpace=wrap;html=1;absoluteArcSize=1;arcSize=14;strokeWidth=2;" vertex="1" parent="1">
          <mxGeometry x="840" y="2100" width="110" height="40" as="geometry" />
        </mxCell>
        <mxCell id="bZSZNWa_KJ6TkrD143hS-81" style="edgeStyle=orthogonalEdgeStyle;rounded=0;orthogonalLoop=1;jettySize=auto;html=1;exitX=0.5;exitY=1;exitDx=0;exitDy=0;exitPerimeter=0;entryX=0.5;entryY=0;entryDx=0;entryDy=0;entryPerimeter=0;" edge="1" parent="1" source="bZSZNWa_KJ6TkrD143hS-48" target="bZSZNWa_KJ6TkrD143hS-46">
          <mxGeometry relative="1" as="geometry" />
        </mxCell>
        <mxCell id="bZSZNWa_KJ6TkrD143hS-83" style="edgeStyle=orthogonalEdgeStyle;rounded=0;orthogonalLoop=1;jettySize=auto;html=1;exitX=0.5;exitY=1;exitDx=0;exitDy=0;" edge="1" parent="1" source="bZSZNWa_KJ6TkrD143hS-10" target="bZSZNWa_KJ6TkrD143hS-10">
          <mxGeometry relative="1" as="geometry" />
        </mxCell>
        <mxCell id="bZSZNWa_KJ6TkrD143hS-86" value="" style="edgeStyle=orthogonalEdgeStyle;rounded=0;orthogonalLoop=1;jettySize=auto;html=1;" edge="1" parent="1" source="bZSZNWa_KJ6TkrD143hS-84" target="bZSZNWa_KJ6TkrD143hS-79">
          <mxGeometry relative="1" as="geometry" />
        </mxCell>
        <mxCell id="bZSZNWa_KJ6TkrD143hS-84" value="ELSE == 4" style="strokeWidth=2;html=1;shape=mxgraph.flowchart.decision;whiteSpace=wrap;" vertex="1" parent="1">
          <mxGeometry x="670" y="2070" width="100" height="100" as="geometry" />
        </mxCell>
        <mxCell id="bZSZNWa_KJ6TkrD143hS-90" style="edgeStyle=orthogonalEdgeStyle;rounded=0;orthogonalLoop=1;jettySize=auto;html=1;exitX=0.25;exitY=1;exitDx=0;exitDy=0;entryX=0.5;entryY=0;entryDx=0;entryDy=0;entryPerimeter=0;" edge="1" parent="1" source="bZSZNWa_KJ6TkrD143hS-14" target="bZSZNWa_KJ6TkrD143hS-51">
          <mxGeometry relative="1" as="geometry" />
        </mxCell>
        <mxCell id="bZSZNWa_KJ6TkrD143hS-93" value="&lt;div&gt;MASUKKAN Menu Berita&lt;/div&gt;&lt;div&gt;1. Tampilkan Data Berita (Ascending)&lt;/div&gt;&lt;div&gt;2. Tampilkan Data Berita (Descending)&lt;/div&gt;&lt;div&gt;3. Tambah Data Berita&lt;/div&gt;&lt;div&gt;4. Hapus Data Berita&lt;/div&gt;&lt;div&gt;5. Cari Berita&lt;/div&gt;&lt;div&gt;6. Update Data Berita&lt;/div&gt;&lt;div&gt;0. Kembali ke Menu Admin&lt;/div&gt;" style="shape=parallelogram;html=1;strokeWidth=2;perimeter=parallelogramPerimeter;whiteSpace=wrap;rounded=1;arcSize=12;size=0.23;" vertex="1" parent="1">
          <mxGeometry x="1300" y="1280" width="390" height="150" as="geometry" />
        </mxCell>
        <mxCell id="bZSZNWa_KJ6TkrD143hS-136" value="" style="edgeStyle=orthogonalEdgeStyle;rounded=0;orthogonalLoop=1;jettySize=auto;html=1;" edge="1" parent="1" source="bZSZNWa_KJ6TkrD143hS-95" target="bZSZNWa_KJ6TkrD143hS-130">
          <mxGeometry relative="1" as="geometry" />
        </mxCell>
        <mxCell id="bZSZNWa_KJ6TkrD143hS-95" value="ELIF == 5" style="strokeWidth=2;html=1;shape=mxgraph.flowchart.decision;whiteSpace=wrap;" vertex="1" parent="1">
          <mxGeometry x="1390" y="2110" width="100" height="100" as="geometry" />
        </mxCell>
        <mxCell id="bZSZNWa_KJ6TkrD143hS-128" value="" style="edgeStyle=orthogonalEdgeStyle;rounded=0;orthogonalLoop=1;jettySize=auto;html=1;" edge="1" parent="1" source="bZSZNWa_KJ6TkrD143hS-97" target="bZSZNWa_KJ6TkrD143hS-121">
          <mxGeometry relative="1" as="geometry" />
        </mxCell>
        <mxCell id="bZSZNWa_KJ6TkrD143hS-97" value="ELIF == 4" style="strokeWidth=2;html=1;shape=mxgraph.flowchart.decision;whiteSpace=wrap;" vertex="1" parent="1">
          <mxGeometry x="1390" y="1970" width="100" height="100" as="geometry" />
        </mxCell>
        <mxCell id="bZSZNWa_KJ6TkrD143hS-119" value="" style="edgeStyle=orthogonalEdgeStyle;rounded=0;orthogonalLoop=1;jettySize=auto;html=1;" edge="1" parent="1" source="bZSZNWa_KJ6TkrD143hS-99" target="bZSZNWa_KJ6TkrD143hS-118">
          <mxGeometry relative="1" as="geometry" />
        </mxCell>
        <mxCell id="bZSZNWa_KJ6TkrD143hS-99" value="ELIF == 3" style="strokeWidth=2;html=1;shape=mxgraph.flowchart.decision;whiteSpace=wrap;" vertex="1" parent="1">
          <mxGeometry x="1390" y="1830" width="100" height="100" as="geometry" />
        </mxCell>
        <mxCell id="bZSZNWa_KJ6TkrD143hS-100" value="" style="edgeStyle=orthogonalEdgeStyle;rounded=0;orthogonalLoop=1;jettySize=auto;html=1;" edge="1" parent="1" source="bZSZNWa_KJ6TkrD143hS-102" target="bZSZNWa_KJ6TkrD143hS-99">
          <mxGeometry relative="1" as="geometry" />
        </mxCell>
        <mxCell id="bZSZNWa_KJ6TkrD143hS-101" value="" style="edgeStyle=orthogonalEdgeStyle;rounded=0;orthogonalLoop=1;jettySize=auto;html=1;" edge="1" parent="1" source="bZSZNWa_KJ6TkrD143hS-102" target="bZSZNWa_KJ6TkrD143hS-110">
          <mxGeometry relative="1" as="geometry" />
        </mxCell>
        <mxCell id="bZSZNWa_KJ6TkrD143hS-102" value="ELIF == 2" style="strokeWidth=2;html=1;shape=mxgraph.flowchart.decision;whiteSpace=wrap;" vertex="1" parent="1">
          <mxGeometry x="1390" y="1670" width="100" height="100" as="geometry" />
        </mxCell>
        <mxCell id="bZSZNWa_KJ6TkrD143hS-103" value="" style="edgeStyle=orthogonalEdgeStyle;rounded=0;orthogonalLoop=1;jettySize=auto;html=1;" edge="1" parent="1" source="bZSZNWa_KJ6TkrD143hS-105" target="bZSZNWa_KJ6TkrD143hS-102">
          <mxGeometry relative="1" as="geometry" />
        </mxCell>
        <mxCell id="bZSZNWa_KJ6TkrD143hS-104" value="" style="edgeStyle=orthogonalEdgeStyle;rounded=0;orthogonalLoop=1;jettySize=auto;html=1;" edge="1" parent="1" source="bZSZNWa_KJ6TkrD143hS-105" target="bZSZNWa_KJ6TkrD143hS-108">
          <mxGeometry relative="1" as="geometry" />
        </mxCell>
        <mxCell id="bZSZNWa_KJ6TkrD143hS-105" value="IF == 1" style="strokeWidth=2;html=1;shape=mxgraph.flowchart.decision;whiteSpace=wrap;" vertex="1" parent="1">
          <mxGeometry x="1390" y="1490" width="100" height="100" as="geometry" />
        </mxCell>
        <mxCell id="bZSZNWa_KJ6TkrD143hS-106" value="" style="edgeStyle=orthogonalEdgeStyle;rounded=0;orthogonalLoop=1;jettySize=auto;html=1;" edge="1" parent="1" source="bZSZNWa_KJ6TkrD143hS-107" target="bZSZNWa_KJ6TkrD143hS-113">
          <mxGeometry relative="1" as="geometry" />
        </mxCell>
        <mxCell id="bZSZNWa_KJ6TkrD143hS-151" value="" style="edgeStyle=orthogonalEdgeStyle;rounded=0;orthogonalLoop=1;jettySize=auto;html=1;" edge="1" parent="1" source="bZSZNWa_KJ6TkrD143hS-107" target="bZSZNWa_KJ6TkrD143hS-147">
          <mxGeometry relative="1" as="geometry" />
        </mxCell>
        <mxCell id="bZSZNWa_KJ6TkrD143hS-107" value="ELIF == 6" style="strokeWidth=2;html=1;shape=mxgraph.flowchart.decision;whiteSpace=wrap;" vertex="1" parent="1">
          <mxGeometry x="1390" y="2270" width="100" height="100" as="geometry" />
        </mxCell>
        <mxCell id="bZSZNWa_KJ6TkrD143hS-108" value="PRINT data berita (ascending)" style="rounded=1;whiteSpace=wrap;html=1;absoluteArcSize=1;arcSize=14;strokeWidth=2;" vertex="1" parent="1">
          <mxGeometry x="1535" y="1517.5" width="120" height="45" as="geometry" />
        </mxCell>
        <mxCell id="bZSZNWa_KJ6TkrD143hS-109" value="data berita berhasil ditambahkan" style="rounded=1;whiteSpace=wrap;html=1;absoluteArcSize=1;arcSize=14;strokeWidth=2;" vertex="1" parent="1">
          <mxGeometry x="1770" y="1860" width="120" height="40" as="geometry" />
        </mxCell>
        <mxCell id="bZSZNWa_KJ6TkrD143hS-110" value="PRINT data berita (descending)" style="rounded=1;whiteSpace=wrap;html=1;absoluteArcSize=1;arcSize=14;strokeWidth=2;" vertex="1" parent="1">
          <mxGeometry x="1535" y="1697.5" width="130" height="45" as="geometry" />
        </mxCell>
        <mxCell id="bZSZNWa_KJ6TkrD143hS-111" value="PRINT data berhasil dihapus" style="rounded=1;whiteSpace=wrap;html=1;absoluteArcSize=1;arcSize=14;strokeWidth=2;" vertex="1" parent="1">
          <mxGeometry x="1881.25" y="2000" width="107.5" height="40" as="geometry" />
        </mxCell>
        <mxCell id="bZSZNWa_KJ6TkrD143hS-113" value="UPDATE BERITA" style="rounded=1;whiteSpace=wrap;html=1;absoluteArcSize=1;arcSize=14;strokeWidth=2;" vertex="1" parent="1">
          <mxGeometry x="1547.5" y="2295" width="120" height="50" as="geometry" />
        </mxCell>
        <mxCell id="bZSZNWa_KJ6TkrD143hS-114" style="edgeStyle=orthogonalEdgeStyle;rounded=0;orthogonalLoop=1;jettySize=auto;html=1;exitX=0.5;exitY=1;exitDx=0;exitDy=0;exitPerimeter=0;entryX=0.5;entryY=0;entryDx=0;entryDy=0;entryPerimeter=0;" edge="1" parent="1" source="bZSZNWa_KJ6TkrD143hS-99" target="bZSZNWa_KJ6TkrD143hS-97">
          <mxGeometry relative="1" as="geometry" />
        </mxCell>
        <mxCell id="bZSZNWa_KJ6TkrD143hS-115" style="edgeStyle=orthogonalEdgeStyle;rounded=0;orthogonalLoop=1;jettySize=auto;html=1;exitX=0.5;exitY=1;exitDx=0;exitDy=0;exitPerimeter=0;entryX=0.5;entryY=0;entryDx=0;entryDy=0;entryPerimeter=0;" edge="1" parent="1" source="bZSZNWa_KJ6TkrD143hS-95" target="bZSZNWa_KJ6TkrD143hS-107">
          <mxGeometry relative="1" as="geometry" />
        </mxCell>
        <mxCell id="bZSZNWa_KJ6TkrD143hS-116" style="edgeStyle=orthogonalEdgeStyle;rounded=0;orthogonalLoop=1;jettySize=auto;html=1;exitX=0.5;exitY=1;exitDx=0;exitDy=0;exitPerimeter=0;entryX=0.5;entryY=0;entryDx=0;entryDy=0;entryPerimeter=0;" edge="1" parent="1" source="bZSZNWa_KJ6TkrD143hS-97" target="bZSZNWa_KJ6TkrD143hS-95">
          <mxGeometry relative="1" as="geometry" />
        </mxCell>
        <mxCell id="bZSZNWa_KJ6TkrD143hS-117" style="edgeStyle=orthogonalEdgeStyle;rounded=0;orthogonalLoop=1;jettySize=auto;html=1;exitX=0.75;exitY=1;exitDx=0;exitDy=0;entryX=0.5;entryY=1;entryDx=0;entryDy=0;" edge="1" parent="1" source="bZSZNWa_KJ6TkrD143hS-108" target="bZSZNWa_KJ6TkrD143hS-108">
          <mxGeometry relative="1" as="geometry" />
        </mxCell>
        <mxCell id="bZSZNWa_KJ6TkrD143hS-120" value="" style="edgeStyle=orthogonalEdgeStyle;rounded=0;orthogonalLoop=1;jettySize=auto;html=1;" edge="1" parent="1" source="bZSZNWa_KJ6TkrD143hS-118" target="bZSZNWa_KJ6TkrD143hS-109">
          <mxGeometry relative="1" as="geometry" />
        </mxCell>
        <mxCell id="bZSZNWa_KJ6TkrD143hS-118" value="masukkan data berita:&lt;div&gt;judul berita, id admin, tanggal terbit&lt;/div&gt;" style="shape=parallelogram;html=1;strokeWidth=2;perimeter=parallelogramPerimeter;whiteSpace=wrap;rounded=1;arcSize=12;size=0.12096774193548387;" vertex="1" parent="1">
          <mxGeometry x="1535" y="1850" width="155" height="60" as="geometry" />
        </mxCell>
        <mxCell id="bZSZNWa_KJ6TkrD143hS-129" value="" style="edgeStyle=orthogonalEdgeStyle;rounded=0;orthogonalLoop=1;jettySize=auto;html=1;" edge="1" parent="1" source="bZSZNWa_KJ6TkrD143hS-121" target="bZSZNWa_KJ6TkrD143hS-111">
          <mxGeometry relative="1" as="geometry" />
        </mxCell>
        <mxCell id="bZSZNWa_KJ6TkrD143hS-121" value="masukkan data berita yang ingin dihapus:&lt;div&gt;&lt;div&gt;judul berita, id admin, tanggal terbit&lt;/div&gt;&lt;/div&gt;" style="shape=parallelogram;html=1;strokeWidth=2;perimeter=parallelogramPerimeter;whiteSpace=wrap;rounded=1;arcSize=12;size=0.12096774193548387;" vertex="1" parent="1">
          <mxGeometry x="1530" y="1987.5" width="295" height="65" as="geometry" />
        </mxCell>
        <mxCell id="bZSZNWa_KJ6TkrD143hS-127" value="" style="edgeStyle=orthogonalEdgeStyle;rounded=0;orthogonalLoop=1;jettySize=auto;html=1;" edge="1" parent="1" source="bZSZNWa_KJ6TkrD143hS-122" target="bZSZNWa_KJ6TkrD143hS-126">
          <mxGeometry relative="1" as="geometry" />
        </mxCell>
        <mxCell id="bZSZNWa_KJ6TkrD143hS-122" value="ELSE" style="strokeWidth=2;html=1;shape=mxgraph.flowchart.decision;whiteSpace=wrap;" vertex="1" parent="1">
          <mxGeometry x="1390" y="2630" width="100" height="100" as="geometry" />
        </mxCell>
        <mxCell id="bZSZNWa_KJ6TkrD143hS-126" value="PRINT Pilihan tidak valid" style="rounded=1;whiteSpace=wrap;html=1;absoluteArcSize=1;arcSize=14;strokeWidth=2;" vertex="1" parent="1">
          <mxGeometry x="1532.5" y="2652.5" width="150" height="55" as="geometry" />
        </mxCell>
        <mxCell id="bZSZNWa_KJ6TkrD143hS-137" value="" style="edgeStyle=orthogonalEdgeStyle;rounded=0;orthogonalLoop=1;jettySize=auto;html=1;" edge="1" parent="1" source="bZSZNWa_KJ6TkrD143hS-130" target="bZSZNWa_KJ6TkrD143hS-132">
          <mxGeometry relative="1" as="geometry" />
        </mxCell>
        <mxCell id="bZSZNWa_KJ6TkrD143hS-130" value="masukkan berita yang ingin dicari: berdasarkan nama?id" style="shape=parallelogram;html=1;strokeWidth=2;perimeter=parallelogramPerimeter;whiteSpace=wrap;rounded=1;arcSize=12;size=0.11999999999999998;" vertex="1" parent="1">
          <mxGeometry x="1550" y="2135" width="180" height="50" as="geometry" />
        </mxCell>
        <mxCell id="bZSZNWa_KJ6TkrD143hS-139" value="" style="edgeStyle=orthogonalEdgeStyle;rounded=0;orthogonalLoop=1;jettySize=auto;html=1;" edge="1" parent="1" source="bZSZNWa_KJ6TkrD143hS-131" target="bZSZNWa_KJ6TkrD143hS-134">
          <mxGeometry relative="1" as="geometry" />
        </mxCell>
        <mxCell id="bZSZNWa_KJ6TkrD143hS-131" value="if ==&lt;div&gt;1.nama&lt;/div&gt;" style="strokeWidth=2;html=1;shape=mxgraph.flowchart.decision;whiteSpace=wrap;" vertex="1" parent="1">
          <mxGeometry x="1795" y="2080" width="65" height="70" as="geometry" />
        </mxCell>
        <mxCell id="bZSZNWa_KJ6TkrD143hS-141" style="edgeStyle=orthogonalEdgeStyle;rounded=0;orthogonalLoop=1;jettySize=auto;html=1;exitX=1;exitY=0.5;exitDx=0;exitDy=0;exitPerimeter=0;entryX=0;entryY=0.5;entryDx=0;entryDy=0;" edge="1" parent="1" source="bZSZNWa_KJ6TkrD143hS-132" target="bZSZNWa_KJ6TkrD143hS-133">
          <mxGeometry relative="1" as="geometry" />
        </mxCell>
        <mxCell id="bZSZNWa_KJ6TkrD143hS-132" value="if==&amp;nbsp;&lt;div&gt;1.id&lt;/div&gt;" style="strokeWidth=2;html=1;shape=mxgraph.flowchart.decision;whiteSpace=wrap;" vertex="1" parent="1">
          <mxGeometry x="1795" y="2170" width="65" height="60" as="geometry" />
        </mxCell>
        <mxCell id="bZSZNWa_KJ6TkrD143hS-143" value="" style="edgeStyle=orthogonalEdgeStyle;rounded=0;orthogonalLoop=1;jettySize=auto;html=1;entryX=0.5;entryY=1;entryDx=0;entryDy=0;" edge="1" parent="1" source="bZSZNWa_KJ6TkrD143hS-133" target="bZSZNWa_KJ6TkrD143hS-135">
          <mxGeometry relative="1" as="geometry">
            <mxPoint x="2139.999999999999" y="2160.142857142858" as="targetPoint" />
          </mxGeometry>
        </mxCell>
        <mxCell id="bZSZNWa_KJ6TkrD143hS-133" value="masukkan berita yang ingin dicari (id)" style="shape=parallelogram;html=1;strokeWidth=2;perimeter=parallelogramPerimeter;whiteSpace=wrap;rounded=1;arcSize=12;size=0.11999999999999998;" vertex="1" parent="1">
          <mxGeometry x="1881.25" y="2175" width="180" height="50" as="geometry" />
        </mxCell>
        <mxCell id="bZSZNWa_KJ6TkrD143hS-142" value="" style="edgeStyle=orthogonalEdgeStyle;rounded=0;orthogonalLoop=1;jettySize=auto;html=1;entryX=0.5;entryY=0;entryDx=0;entryDy=0;" edge="1" parent="1" source="bZSZNWa_KJ6TkrD143hS-134" target="bZSZNWa_KJ6TkrD143hS-135">
          <mxGeometry relative="1" as="geometry">
            <mxPoint x="2139.999999999999" y="2160.142857142858" as="targetPoint" />
            <Array as="points">
              <mxPoint x="2330" y="2110" />
            </Array>
          </mxGeometry>
        </mxCell>
        <mxCell id="bZSZNWa_KJ6TkrD143hS-134" value="masukkan berita yang ingin&amp;nbsp;&lt;div&gt;dicari: (nama)&lt;/div&gt;" style="shape=parallelogram;html=1;strokeWidth=2;perimeter=parallelogramPerimeter;whiteSpace=wrap;rounded=1;arcSize=12;size=0.06818181818181818;" vertex="1" parent="1">
          <mxGeometry x="1890" y="2090" width="180" height="50" as="geometry" />
        </mxCell>
        <mxCell id="bZSZNWa_KJ6TkrD143hS-135" value="PRINT berita" style="rounded=1;whiteSpace=wrap;html=1;absoluteArcSize=1;arcSize=14;strokeWidth=2;" vertex="1" parent="1">
          <mxGeometry x="2230" y="2135" width="200" height="50" as="geometry" />
        </mxCell>
        <mxCell id="bZSZNWa_KJ6TkrD143hS-138" style="edgeStyle=orthogonalEdgeStyle;rounded=0;orthogonalLoop=1;jettySize=auto;html=1;exitX=1;exitY=0.5;exitDx=0;exitDy=0;entryX=0;entryY=0.5;entryDx=0;entryDy=0;entryPerimeter=0;" edge="1" parent="1" source="bZSZNWa_KJ6TkrD143hS-130" target="bZSZNWa_KJ6TkrD143hS-131">
          <mxGeometry relative="1" as="geometry" />
        </mxCell>
        <mxCell id="bZSZNWa_KJ6TkrD143hS-144" value="Masukkan berita yang&lt;div&gt;&amp;nbsp;akan di update&lt;/div&gt;" style="shape=parallelogram;html=1;strokeWidth=2;perimeter=parallelogramPerimeter;whiteSpace=wrap;rounded=1;arcSize=12;size=0.10714285714285714;" vertex="1" parent="1">
          <mxGeometry x="1710" y="2295" width="150" height="60" as="geometry" />
        </mxCell>
        <mxCell id="bZSZNWa_KJ6TkrD143hS-145" value="PRINT berita berhasil diperbarui" style="rounded=1;whiteSpace=wrap;html=1;absoluteArcSize=1;arcSize=14;strokeWidth=2;" vertex="1" parent="1">
          <mxGeometry x="1911.25" y="2295" width="120" height="50" as="geometry" />
        </mxCell>
        <mxCell id="bZSZNWa_KJ6TkrD143hS-152" value="" style="edgeStyle=orthogonalEdgeStyle;rounded=0;orthogonalLoop=1;jettySize=auto;html=1;" edge="1" parent="1" source="bZSZNWa_KJ6TkrD143hS-147" target="bZSZNWa_KJ6TkrD143hS-122">
          <mxGeometry relative="1" as="geometry" />
        </mxCell>
        <mxCell id="bZSZNWa_KJ6TkrD143hS-159" value="" style="edgeStyle=orthogonalEdgeStyle;rounded=0;orthogonalLoop=1;jettySize=auto;html=1;" edge="1" parent="1" source="bZSZNWa_KJ6TkrD143hS-147" target="bZSZNWa_KJ6TkrD143hS-158">
          <mxGeometry relative="1" as="geometry" />
        </mxCell>
        <mxCell id="bZSZNWa_KJ6TkrD143hS-147" value="ELIF == 0" style="strokeWidth=2;html=1;shape=mxgraph.flowchart.decision;whiteSpace=wrap;" vertex="1" parent="1">
          <mxGeometry x="1390" y="2450" width="100" height="100" as="geometry" />
        </mxCell>
        <mxCell id="bZSZNWa_KJ6TkrD143hS-156" value="" style="edgeStyle=orthogonalEdgeStyle;rounded=0;orthogonalLoop=1;jettySize=auto;html=1;" edge="1" parent="1" source="bZSZNWa_KJ6TkrD143hS-153" target="bZSZNWa_KJ6TkrD143hS-155">
          <mxGeometry relative="1" as="geometry" />
        </mxCell>
        <mxCell id="bZSZNWa_KJ6TkrD143hS-153" value="ELSE" style="strokeWidth=2;html=1;shape=mxgraph.flowchart.decision;whiteSpace=wrap;" vertex="1" parent="1">
          <mxGeometry x="-260" y="2410" width="100" height="100" as="geometry" />
        </mxCell>
        <mxCell id="bZSZNWa_KJ6TkrD143hS-155" value="PRINT pilihan tidak valid" style="rounded=1;whiteSpace=wrap;html=1;absoluteArcSize=1;arcSize=14;strokeWidth=2;" vertex="1" parent="1">
          <mxGeometry x="-95" y="2430" width="100" height="60" as="geometry" />
        </mxCell>
        <mxCell id="bZSZNWa_KJ6TkrD143hS-160" style="edgeStyle=orthogonalEdgeStyle;rounded=0;orthogonalLoop=1;jettySize=auto;html=1;exitX=0.5;exitY=1;exitDx=0;exitDy=0;entryX=0;entryY=0.25;entryDx=0;entryDy=0;" edge="1" parent="1" source="bZSZNWa_KJ6TkrD143hS-158" target="BRCq66YhKApSxifKRfjB-9">
          <mxGeometry relative="1" as="geometry">
            <mxPoint x="-660" y="2026" as="targetPoint" />
            <Array as="points">
              <mxPoint x="1505" y="2500" />
              <mxPoint x="1670" y="2500" />
              <mxPoint x="1670" y="2830" />
              <mxPoint x="-380" y="2830" />
              <mxPoint x="-380" y="798" />
            </Array>
          </mxGeometry>
        </mxCell>
        <mxCell id="bZSZNWa_KJ6TkrD143hS-158" value="PRINT Kembali ke menu admin." style="rounded=1;whiteSpace=wrap;html=1;absoluteArcSize=1;arcSize=14;strokeWidth=2;" vertex="1" parent="1">
          <mxGeometry x="1550" y="2472.5" width="150" height="55" as="geometry" />
        </mxCell>
        <mxCell id="bZSZNWa_KJ6TkrD143hS-169" style="edgeStyle=orthogonalEdgeStyle;rounded=0;orthogonalLoop=1;jettySize=auto;html=1;exitX=0.75;exitY=1;exitDx=0;exitDy=0;entryX=0.5;entryY=0;entryDx=0;entryDy=0;entryPerimeter=0;" edge="1" parent="1" source="BRCq66YhKApSxifKRfjB-9" target="BRCq66YhKApSxifKRfjB-19">
          <mxGeometry relative="1" as="geometry">
            <Array as="points">
              <mxPoint x="1560" y="875" />
              <mxPoint x="1560" y="900" />
              <mxPoint x="1815" y="900" />
            </Array>
          </mxGeometry>
        </mxCell>
        <mxCell id="bZSZNWa_KJ6TkrD143hS-170" style="edgeStyle=orthogonalEdgeStyle;rounded=0;orthogonalLoop=1;jettySize=auto;html=1;exitX=0.5;exitY=1;exitDx=0;exitDy=0;entryX=0.5;entryY=0;entryDx=0;entryDy=0;entryPerimeter=0;" edge="1" parent="1" source="BRCq66YhKApSxifKRfjB-9" target="BRCq66YhKApSxifKRfjB-18">
          <mxGeometry relative="1" as="geometry">
            <Array as="points">
              <mxPoint x="1560" y="875" />
              <mxPoint x="1560" y="900" />
              <mxPoint x="1495" y="900" />
            </Array>
          </mxGeometry>
        </mxCell>
        <mxCell id="bZSZNWa_KJ6TkrD143hS-171" style="edgeStyle=orthogonalEdgeStyle;rounded=0;orthogonalLoop=1;jettySize=auto;html=1;exitX=0.25;exitY=1;exitDx=0;exitDy=0;entryX=0.5;entryY=0;entryDx=0;entryDy=0;entryPerimeter=0;" edge="1" parent="1" source="BRCq66YhKApSxifKRfjB-9" target="BRCq66YhKApSxifKRfjB-17">
          <mxGeometry relative="1" as="geometry">
            <Array as="points">
              <mxPoint x="1560" y="875" />
              <mxPoint x="1560" y="900" />
              <mxPoint x="1065" y="900" />
            </Array>
          </mxGeometry>
        </mxCell>
        <mxCell id="bZSZNWa_KJ6TkrD143hS-172" style="edgeStyle=orthogonalEdgeStyle;rounded=0;orthogonalLoop=1;jettySize=auto;html=1;exitX=0;exitY=1;exitDx=0;exitDy=0;entryX=0.5;entryY=0;entryDx=0;entryDy=0;entryPerimeter=0;" edge="1" parent="1" source="BRCq66YhKApSxifKRfjB-9" target="BRCq66YhKApSxifKRfjB-16">
          <mxGeometry relative="1" as="geometry">
            <Array as="points">
              <mxPoint x="1560" y="875" />
              <mxPoint x="1560" y="900" />
              <mxPoint x="597" y="900" />
            </Array>
          </mxGeometry>
        </mxCell>
        <mxCell id="bZSZNWa_KJ6TkrD143hS-173" value="" style="edgeStyle=orthogonalEdgeStyle;rounded=0;orthogonalLoop=1;jettySize=auto;html=1;" edge="1" parent="1" source="bZSZNWa_KJ6TkrD143hS-174" target="bZSZNWa_KJ6TkrD143hS-182">
          <mxGeometry relative="1" as="geometry" />
        </mxCell>
        <mxCell id="bZSZNWa_KJ6TkrD143hS-376" value="" style="edgeStyle=orthogonalEdgeStyle;rounded=0;orthogonalLoop=1;jettySize=auto;html=1;" edge="1" parent="1" source="bZSZNWa_KJ6TkrD143hS-174" target="bZSZNWa_KJ6TkrD143hS-176">
          <mxGeometry relative="1" as="geometry" />
        </mxCell>
        <mxCell id="bZSZNWa_KJ6TkrD143hS-174" value="IF == 1" style="strokeWidth=2;html=1;shape=mxgraph.flowchart.decision;whiteSpace=wrap;" vertex="1" parent="1">
          <mxGeometry x="2170" y="995.1" width="100" height="100" as="geometry" />
        </mxCell>
        <mxCell id="bZSZNWa_KJ6TkrD143hS-175" value="" style="edgeStyle=orthogonalEdgeStyle;rounded=0;orthogonalLoop=1;jettySize=auto;html=1;" edge="1" parent="1" source="bZSZNWa_KJ6TkrD143hS-176" target="bZSZNWa_KJ6TkrD143hS-187">
          <mxGeometry relative="1" as="geometry" />
        </mxCell>
        <mxCell id="bZSZNWa_KJ6TkrD143hS-377" value="" style="edgeStyle=orthogonalEdgeStyle;rounded=0;orthogonalLoop=1;jettySize=auto;html=1;" edge="1" parent="1" source="bZSZNWa_KJ6TkrD143hS-176" target="bZSZNWa_KJ6TkrD143hS-178">
          <mxGeometry relative="1" as="geometry" />
        </mxCell>
        <mxCell id="bZSZNWa_KJ6TkrD143hS-176" value="ELIF == 2" style="strokeWidth=2;html=1;shape=mxgraph.flowchart.decision;whiteSpace=wrap;" vertex="1" parent="1">
          <mxGeometry x="2170" y="1140" width="100" height="100" as="geometry" />
        </mxCell>
        <mxCell id="bZSZNWa_KJ6TkrD143hS-177" value="" style="edgeStyle=orthogonalEdgeStyle;rounded=0;orthogonalLoop=1;jettySize=auto;html=1;" edge="1" parent="1" source="bZSZNWa_KJ6TkrD143hS-178" target="bZSZNWa_KJ6TkrD143hS-185">
          <mxGeometry relative="1" as="geometry" />
        </mxCell>
        <mxCell id="bZSZNWa_KJ6TkrD143hS-378" value="" style="edgeStyle=orthogonalEdgeStyle;rounded=0;orthogonalLoop=1;jettySize=auto;html=1;" edge="1" parent="1" source="bZSZNWa_KJ6TkrD143hS-178" target="bZSZNWa_KJ6TkrD143hS-180">
          <mxGeometry relative="1" as="geometry" />
        </mxCell>
        <mxCell id="bZSZNWa_KJ6TkrD143hS-178" value="ELIF == 3" style="strokeWidth=2;html=1;shape=mxgraph.flowchart.decision;whiteSpace=wrap;" vertex="1" parent="1">
          <mxGeometry x="2170" y="1285" width="100" height="100" as="geometry" />
        </mxCell>
        <mxCell id="bZSZNWa_KJ6TkrD143hS-179" value="" style="edgeStyle=orthogonalEdgeStyle;rounded=0;orthogonalLoop=1;jettySize=auto;html=1;" edge="1" parent="1" source="bZSZNWa_KJ6TkrD143hS-180" target="bZSZNWa_KJ6TkrD143hS-183">
          <mxGeometry relative="1" as="geometry" />
        </mxCell>
        <mxCell id="bZSZNWa_KJ6TkrD143hS-379" value="" style="edgeStyle=orthogonalEdgeStyle;rounded=0;orthogonalLoop=1;jettySize=auto;html=1;" edge="1" parent="1" source="bZSZNWa_KJ6TkrD143hS-180" target="bZSZNWa_KJ6TkrD143hS-324">
          <mxGeometry relative="1" as="geometry" />
        </mxCell>
        <mxCell id="bZSZNWa_KJ6TkrD143hS-180" value="ELIF == 4" style="strokeWidth=2;html=1;shape=mxgraph.flowchart.decision;whiteSpace=wrap;" vertex="1" parent="1">
          <mxGeometry x="2170" y="1450" width="100" height="100" as="geometry" />
        </mxCell>
        <mxCell id="bZSZNWa_KJ6TkrD143hS-347" value="" style="edgeStyle=orthogonalEdgeStyle;rounded=0;orthogonalLoop=1;jettySize=auto;html=1;" edge="1" parent="1" source="bZSZNWa_KJ6TkrD143hS-182" target="bZSZNWa_KJ6TkrD143hS-340">
          <mxGeometry relative="1" as="geometry" />
        </mxCell>
        <mxCell id="bZSZNWa_KJ6TkrD143hS-182" value="PRINT menu data satwa" style="rounded=1;whiteSpace=wrap;html=1;absoluteArcSize=1;arcSize=14;strokeWidth=2;" vertex="1" parent="1">
          <mxGeometry x="2410" y="1010" width="210" height="70" as="geometry" />
        </mxCell>
        <mxCell id="bZSZNWa_KJ6TkrD143hS-353" value="" style="edgeStyle=orthogonalEdgeStyle;rounded=0;orthogonalLoop=1;jettySize=auto;html=1;" edge="1" parent="1" source="bZSZNWa_KJ6TkrD143hS-183" target="bZSZNWa_KJ6TkrD143hS-352">
          <mxGeometry relative="1" as="geometry" />
        </mxCell>
        <mxCell id="bZSZNWa_KJ6TkrD143hS-183" value="PRINT menu berita (terbaru)" style="rounded=1;whiteSpace=wrap;html=1;absoluteArcSize=1;arcSize=14;strokeWidth=2;" vertex="1" parent="1">
          <mxGeometry x="2425" y="1465" width="210" height="70" as="geometry" />
        </mxCell>
        <mxCell id="bZSZNWa_KJ6TkrD143hS-351" style="edgeStyle=orthogonalEdgeStyle;rounded=0;orthogonalLoop=1;jettySize=auto;html=1;exitX=1;exitY=0.5;exitDx=0;exitDy=0;" edge="1" parent="1" source="bZSZNWa_KJ6TkrD143hS-185" target="bZSZNWa_KJ6TkrD143hS-338">
          <mxGeometry relative="1" as="geometry" />
        </mxCell>
        <mxCell id="bZSZNWa_KJ6TkrD143hS-185" value="PRINT menu berita (terlama)" style="rounded=1;whiteSpace=wrap;html=1;absoluteArcSize=1;arcSize=14;strokeWidth=2;" vertex="1" parent="1">
          <mxGeometry x="2430" y="1300" width="210" height="70" as="geometry" />
        </mxCell>
        <mxCell id="bZSZNWa_KJ6TkrD143hS-186" value="" style="edgeStyle=orthogonalEdgeStyle;rounded=0;orthogonalLoop=1;jettySize=auto;html=1;" edge="1" parent="1" source="bZSZNWa_KJ6TkrD143hS-187" target="bZSZNWa_KJ6TkrD143hS-236">
          <mxGeometry relative="1" as="geometry" />
        </mxCell>
        <mxCell id="bZSZNWa_KJ6TkrD143hS-187" value="PRINT cari satwa&amp;nbsp;" style="rounded=1;whiteSpace=wrap;html=1;absoluteArcSize=1;arcSize=14;strokeWidth=2;" vertex="1" parent="1">
          <mxGeometry x="2400" y="1155" width="210" height="70" as="geometry" />
        </mxCell>
        <mxCell id="bZSZNWa_KJ6TkrD143hS-355" value="" style="edgeStyle=orthogonalEdgeStyle;rounded=0;orthogonalLoop=1;jettySize=auto;html=1;" edge="1" parent="1" source="bZSZNWa_KJ6TkrD143hS-236" target="bZSZNWa_KJ6TkrD143hS-354">
          <mxGeometry relative="1" as="geometry" />
        </mxCell>
        <mxCell id="bZSZNWa_KJ6TkrD143hS-236" value="&lt;div&gt;&lt;br&gt;&lt;/div&gt;&lt;div&gt;MASUKKAN data Satwa:&lt;/div&gt;&lt;div&gt;kata kunci satwa&lt;/div&gt;&lt;div&gt;&lt;br&gt;&lt;/div&gt;" style="shape=parallelogram;html=1;strokeWidth=2;perimeter=parallelogramPerimeter;whiteSpace=wrap;rounded=1;arcSize=12;size=0.08898305084745763;" vertex="1" parent="1">
          <mxGeometry x="2700" y="1157.55" width="295" height="64.9" as="geometry" />
        </mxCell>
        <mxCell id="bZSZNWa_KJ6TkrD143hS-323" value="" style="edgeStyle=orthogonalEdgeStyle;rounded=0;orthogonalLoop=1;jettySize=auto;html=1;" edge="1" parent="1" source="bZSZNWa_KJ6TkrD143hS-324" target="bZSZNWa_KJ6TkrD143hS-325">
          <mxGeometry relative="1" as="geometry" />
        </mxCell>
        <mxCell id="bZSZNWa_KJ6TkrD143hS-380" value="" style="edgeStyle=orthogonalEdgeStyle;rounded=0;orthogonalLoop=1;jettySize=auto;html=1;" edge="1" parent="1" source="bZSZNWa_KJ6TkrD143hS-324" target="bZSZNWa_KJ6TkrD143hS-359">
          <mxGeometry relative="1" as="geometry" />
        </mxCell>
        <mxCell id="bZSZNWa_KJ6TkrD143hS-324" value="ELIF == 5" style="strokeWidth=2;html=1;shape=mxgraph.flowchart.decision;whiteSpace=wrap;" vertex="1" parent="1">
          <mxGeometry x="2170" y="1600" width="100" height="100" as="geometry" />
        </mxCell>
        <mxCell id="bZSZNWa_KJ6TkrD143hS-358" value="" style="edgeStyle=orthogonalEdgeStyle;rounded=0;orthogonalLoop=1;jettySize=auto;html=1;" edge="1" parent="1" source="bZSZNWa_KJ6TkrD143hS-325" target="bZSZNWa_KJ6TkrD143hS-357">
          <mxGeometry relative="1" as="geometry" />
        </mxCell>
        <mxCell id="bZSZNWa_KJ6TkrD143hS-325" value="PRINT data kawasan konservasi" style="rounded=1;whiteSpace=wrap;html=1;absoluteArcSize=1;arcSize=14;strokeWidth=2;" vertex="1" parent="1">
          <mxGeometry x="2425" y="1615" width="210" height="70" as="geometry" />
        </mxCell>
        <mxCell id="bZSZNWa_KJ6TkrD143hS-327" value="ragam hayati" style="strokeWidth=2;html=1;shape=mxgraph.flowchart.database;whiteSpace=wrap;" vertex="1" parent="1">
          <mxGeometry x="1160" y="1940" width="120" height="60" as="geometry" />
        </mxCell>
        <mxCell id="bZSZNWa_KJ6TkrD143hS-329" value="ragam hayati" style="strokeWidth=2;html=1;shape=mxgraph.flowchart.database;whiteSpace=wrap;" vertex="1" parent="1">
          <mxGeometry x="1150" y="1800" width="120" height="60" as="geometry" />
        </mxCell>
        <mxCell id="bZSZNWa_KJ6TkrD143hS-338" value="ragam hayati" style="strokeWidth=2;html=1;shape=mxgraph.flowchart.database;whiteSpace=wrap;" vertex="1" parent="1">
          <mxGeometry x="2800" y="1305" width="120" height="60" as="geometry" />
        </mxCell>
        <mxCell id="bZSZNWa_KJ6TkrD143hS-339" value="ragam hayati" style="strokeWidth=2;html=1;shape=mxgraph.flowchart.database;whiteSpace=wrap;" vertex="1" parent="1">
          <mxGeometry x="3250" y="1160" width="120" height="60" as="geometry" />
        </mxCell>
        <mxCell id="bZSZNWa_KJ6TkrD143hS-340" value="ragam hayati" style="strokeWidth=2;html=1;shape=mxgraph.flowchart.database;whiteSpace=wrap;" vertex="1" parent="1">
          <mxGeometry x="2710" y="1015.0999999999999" width="120" height="60" as="geometry" />
        </mxCell>
        <mxCell id="bZSZNWa_KJ6TkrD143hS-352" value="ragam hayati" style="strokeWidth=2;html=1;shape=mxgraph.flowchart.database;whiteSpace=wrap;" vertex="1" parent="1">
          <mxGeometry x="2800" y="1470" width="120" height="60" as="geometry" />
        </mxCell>
        <mxCell id="bZSZNWa_KJ6TkrD143hS-356" value="" style="edgeStyle=orthogonalEdgeStyle;rounded=0;orthogonalLoop=1;jettySize=auto;html=1;" edge="1" parent="1" source="bZSZNWa_KJ6TkrD143hS-354" target="bZSZNWa_KJ6TkrD143hS-339">
          <mxGeometry relative="1" as="geometry" />
        </mxCell>
        <mxCell id="bZSZNWa_KJ6TkrD143hS-354" value="SEARCH satwa" style="rounded=1;whiteSpace=wrap;html=1;absoluteArcSize=1;arcSize=14;strokeWidth=2;" vertex="1" parent="1">
          <mxGeometry x="3040" y="1168.78" width="160" height="42.45" as="geometry" />
        </mxCell>
        <mxCell id="bZSZNWa_KJ6TkrD143hS-357" value="ragam hayati" style="strokeWidth=2;html=1;shape=mxgraph.flowchart.database;whiteSpace=wrap;" vertex="1" parent="1">
          <mxGeometry x="2800" y="1620" width="120" height="60" as="geometry" />
        </mxCell>
        <mxCell id="bZSZNWa_KJ6TkrD143hS-362" value="" style="edgeStyle=orthogonalEdgeStyle;rounded=0;orthogonalLoop=1;jettySize=auto;html=1;" edge="1" parent="1" source="bZSZNWa_KJ6TkrD143hS-359" target="bZSZNWa_KJ6TkrD143hS-361">
          <mxGeometry relative="1" as="geometry" />
        </mxCell>
        <mxCell id="bZSZNWa_KJ6TkrD143hS-381" value="" style="edgeStyle=orthogonalEdgeStyle;rounded=0;orthogonalLoop=1;jettySize=auto;html=1;" edge="1" parent="1" source="bZSZNWa_KJ6TkrD143hS-359" target="bZSZNWa_KJ6TkrD143hS-374">
          <mxGeometry relative="1" as="geometry" />
        </mxCell>
        <mxCell id="bZSZNWa_KJ6TkrD143hS-359" value="ELIF == 6" style="strokeWidth=2;html=1;shape=mxgraph.flowchart.decision;whiteSpace=wrap;" vertex="1" parent="1">
          <mxGeometry x="2170" y="1780" width="100" height="100" as="geometry" />
        </mxCell>
        <mxCell id="bZSZNWa_KJ6TkrD143hS-363" style="edgeStyle=orthogonalEdgeStyle;rounded=0;orthogonalLoop=1;jettySize=auto;html=1;entryX=1;entryY=0.5;entryDx=0;entryDy=0;" edge="1" parent="1" source="bZSZNWa_KJ6TkrD143hS-361" target="BRCq66YhKApSxifKRfjB-7">
          <mxGeometry relative="1" as="geometry">
            <Array as="points">
              <mxPoint x="4490" y="1850" />
              <mxPoint x="4490" y="365" />
            </Array>
          </mxGeometry>
        </mxCell>
        <mxCell id="bZSZNWa_KJ6TkrD143hS-361" value="PRINT&amp;nbsp;Keluar dari menu user." style="rounded=1;whiteSpace=wrap;html=1;absoluteArcSize=1;arcSize=14;strokeWidth=2;" vertex="1" parent="1">
          <mxGeometry x="2430" y="1792.5" width="190" height="75" as="geometry" />
        </mxCell>
        <mxCell id="bZSZNWa_KJ6TkrD143hS-372" style="edgeStyle=orthogonalEdgeStyle;rounded=0;orthogonalLoop=1;jettySize=auto;html=1;exitX=1;exitY=0.75;exitDx=0;exitDy=0;entryX=0.5;entryY=0;entryDx=0;entryDy=0;entryPerimeter=0;" edge="1" parent="1" source="BRCq66YhKApSxifKRfjB-7" target="BRCq66YhKApSxifKRfjB-8">
          <mxGeometry relative="1" as="geometry" />
        </mxCell>
        <mxCell id="bZSZNWa_KJ6TkrD143hS-373" value="" style="edgeStyle=orthogonalEdgeStyle;rounded=0;orthogonalLoop=1;jettySize=auto;html=1;" edge="1" parent="1" source="bZSZNWa_KJ6TkrD143hS-374" target="bZSZNWa_KJ6TkrD143hS-375">
          <mxGeometry relative="1" as="geometry" />
        </mxCell>
        <mxCell id="bZSZNWa_KJ6TkrD143hS-374" value="ELSE" style="strokeWidth=2;html=1;shape=mxgraph.flowchart.decision;whiteSpace=wrap;" vertex="1" parent="1">
          <mxGeometry x="2172.5" y="1960" width="100" height="100" as="geometry" />
        </mxCell>
        <mxCell id="bZSZNWa_KJ6TkrD143hS-375" value="PRINT Pilihan tidak valid" style="rounded=1;whiteSpace=wrap;html=1;absoluteArcSize=1;arcSize=14;strokeWidth=2;" vertex="1" parent="1">
          <mxGeometry x="2455" y="1982.5" width="150" height="55" as="geometry" />
        </mxCell>
      </root>
    </mxGraphModel>
  </diagram>
</mxfile>
